<svg viewBox="0 0 42.64 27.11" xmlns="http://www.w3.org/2000/svg"><circle cx="13.56" cy="13.56" fill="#f4f4f4" r="13.56"/><circle cx="2.63" cy="16.62" fill="#7C8999" r="2.19"/><g fill="#455e77"><path d="m6.88 6.31h5.06c3.88 0 6.06 2.21 6.06 6.25s-2.18 6.25-6.06 6.25h-5.06zm4.73 10.22c2.51 0 3.63-1.46 3.63-4s-1.16-4-3.63-4h-2v7.94z"/><path d="m19.88 6.31h2.79l5.15 8.37v-8.37h2.63v12.5h-2.74l-5.18-8.39v8.39h-2.65z"/><path d="m39.55 10c-.11-1.21-.91-1.86-2.37-1.86-1.27 0-2 .52-2 1.42 0 1.09 1.33 1.18 3.83 1.88 2.23.63 3.65 1.49 3.65 3.58 0 2.95-2.6 4-5.15 4-3.39 0-5.39-1.63-5.42-4.46h2.72c.03 1.76 1.19 2.44 2.81 2.44 1.44 0 2.31-.63 2.31-1.66s-.84-1.16-3.42-1.9c-2-.58-4-1.09-4-3.64 0-2.26 1.9-3.74 4.82-3.74 2.63 0 4.76 1.2 4.81 4z"/></g></svg>