<svg height="32" viewBox="0 0 32 32" width="32" xmlns="http://www.w3.org/2000/svg"><g fill="none" transform="translate(0 5)"><rect fill="#f4f4f4" height="21.611429" rx="3" width="27.010595"/><g fill="#263942"><rect height="3.601905" opacity=".05" rx="1.800952" width="23.408691" x="1.800952" y="1.800952"/><path d="m26.1138095 3.60190476c-.4973192 0-.9004762.40315692-.9004762.90047619v13.50714285c-.0040447.9929584-.807994 1.7969077-1.8009523 1.8009524h-18.91000005c-.49731927 0-.90047619.4031569-.90047619.9004762 0 .4973192.40315692.9004762.90047619.9004762h18.91000005c1.989277 0 3.6019047-1.6126277 3.6019047-3.6019048v-13.50714285c0-.49731927-.4031569-.90047619-.9004762-.90047619z" opacity=".05"/><circle cx="4.502381" cy="3.601905" opacity=".05" r="1"/><circle cx="7.022976" cy="3.601905" opacity=".05" r="1"/><circle cx="9.543571" cy="3.601905" opacity=".05" r="1"/><path d="m1.18095238.19190476h9.00476192c.2388315.00388317.4663347.10249925.6324452.27414676.1661105.1716475.2572164.40226089.2532691.64109134-.0079017.48585588-.3998584.87781263-.8857143.88571428h-9.00476192c-.49161096.00006607-.892417-.39416938-.90047619-.88571428-.00395739-.24136851.08916401-.47421884.25846689-.64629717.16930287-.17207834.40060836-.26897337.6420093-.26894093z" opacity=".05" transform="translate(3.321429 7.011905)"/></g><path d="m27.597381 3.10369048c-.0091347-.00527392-.0203892-.00527392-.0295239 0-.0105648-.00473646-.0226494-.00473646-.0332142 0l-7.4363096 7.43630952-4.1813095 4.1813095-.7860714.7786905-.782381-.7860714-3.255-3.255c-.0168109-.0150362-.0422367-.0150362-.0590476 0l-3.25869047 3.255c-.01591619.0108254-.02555677.0287294-.02583333.0479762-.00410799.0094125-.00410799.0201112 0 .0295238l7.3514286 7.3182143c.0094924.0037054.0200313.0037054.0295238 0 .0106521.004309.0225621.004309.0332143 0l3.3694047-3.3694048 12.3188096-12.3225c.0092928-.00696963.0147619-.01790777.0147619-.02952381 0-.01161605-.0054691-.02255419-.0147619-.02952381z" fill="#7C8999"/></g></svg>