<svg viewBox="0 0 55.58 50.31" xmlns="http://www.w3.org/2000/svg"><g fill="#efa543"><path d="m55.58 48.58a1.72 1.72 0 0 1 -1.73 1.73h-10.79a1.72 1.72 0 0 1 -1.73-1.73v-22.22a1.72 1.72 0 0 1 .5-1.22l10.8-10.8a1.73 1.73 0 0 1 2.95 1.23z"/><path d="m31.72 35a1.64 1.64 0 0 0 -.52 1.21v12.37a1.71 1.71 0 0 0 1.73 1.73h10.13v-26.41z"/><path d="m21.27 45.49a1.63 1.63 0 0 0 -.51 1.21v1.88a1.71 1.71 0 0 0 1.73 1.73h10.44v-16.51z"/><path d="m13.32 35.11a1.64 1.64 0 0 0 -1.87-.38 1.72 1.72 0 0 0 -1.07 1.59v12.26a1.71 1.71 0 0 0 1.73 1.73h10.38v-6z"/><path d="m10.9 35.11-10.38 10.38a1.6 1.6 0 0 0 -.52 1.21v1.88a1.71 1.71 0 0 0 1.73 1.73h10.38v-15.72a1.64 1.64 0 0 0 -1.21.52z"/></g><g fill="#263942" opacity=".1"><path d="m2.5 28.81 5.55-5.56a1.73 1.73 0 0 1 2.45 2.45l-5.56 5.56a1.73 1.73 0 0 1 -2.44-2.45z"/><path d="m5.34 26 5.56-5.56a1.73 1.73 0 0 1 2.44 2.44l-5.55 5.53a1.73 1.73 0 0 1 -2.45-2.41z"/><path d="m19.27 31.26-5.55-5.56a1.73 1.73 0 0 1 2.44-2.45l5.56 5.56a1.73 1.73 0 0 1 -2.45 2.45z"/><path d="m21.28 33.26-5.56-5.56a1.73 1.73 0 1 1 2.45-2.44l5.55 5.55a1.73 1.73 0 0 1 -2.44 2.45z"/><path d="m16.44 28.43-5.56-5.56a1.73 1.73 0 0 1 2.45-2.45l5.56 5.58a1.73 1.73 0 0 1 -2.45 2.43z"/><path d="m23.25 28.81 23.09-22.81a1.73 1.73 0 0 1 2.44 2.4l-23.08 22.86a1.73 1.73 0 0 1 -2.45-2.45z"/><path d="m21.27 30.8 23.08-22.86a1.73 1.73 0 0 1 2.45 2.45l-23.09 22.85a1.73 1.73 0 0 1 -2.44-2.44z"/></g><path d="m50.39 10.38a5.19 5.19 0 1 1 5.19-5.19 5.2 5.2 0 0 1 -5.19 5.19z" fill="#7C8999"/></svg>