<svg viewBox="0 0 40.26 32.21" xmlns="http://www.w3.org/2000/svg"><rect fill="#f4f4f4" height="32.21" rx="5.37" width="40.26"/><rect fill="#263942" height="5.37" opacity=".05" rx="2.68" width="34.89" x="2.68" y="2.68"/><path d="m39.1 9.05a1.16 1.16 0 0 0 -1.16 1.16v17.36a2.32 2.32 0 0 1 -2.31 2.32h-24.32a1.16 1.16 0 0 0 0 2.32h24.32a4.64 4.64 0 0 0 4.63-4.64v-17.36a1.16 1.16 0 0 0 -1.16-1.16z" fill="#263942" opacity=".05"/><circle cx="6.71" cy="5.37" fill="#7C8999" r="1.34"/><circle cx="10.47" cy="5.37" fill="#efa543" r="1.34"/><circle cx="14.22" cy="5.37" fill="#455e77" r="1.34"/><path d="m16.3 20.9h-1.3v2.16h-1.73v-2.16h-4v-1.75l4.08-5.5h1.65v5.67h1.3zm-3-5.06-2.49 3.48h2.49z" fill="#455e77"/><path d="m23.7 18.44c0 3-1.29 4.78-3.42 4.78s-3.47-1.78-3.47-4.78c0-2.21.79-4.81 3.46-4.81s3.43 2.6 3.43 4.81zm-5 .09c0 2.13.51 3.15 1.59 3.15s1.55-1.06 1.55-3.24-.48-3.24-1.57-3.24c-1.59 0-1.59 2.22-1.59 3.33z" fill="#7C8999"/><path d="m31.2 20.9h-1.26v2.16h-1.77v-2.16h-4v-1.75l4.07-5.5h1.72v5.67h1.24zm-3-5.06-2.49 3.48h2.49z" fill="#455e77"/></svg>