<svg viewBox="0 0 27.54 36.72" xmlns="http://www.w3.org/2000/svg"><path d="m2.3 0a2.3 2.3 0 0 0 -2.3 2.3v32.13a2.3 2.3 0 0 0 2.3 2.29h23a2.3 2.3 0 0 0 2.29-2.29v-25.25l-9.23-9.18z" fill="#f4f4f4"/><path d="m20.66 9.18h6.88l-9.18-9.18v6.89a2.3 2.3 0 0 0 2.3 2.29z" fill="#263942" opacity=".05"/><path d="m27.54 16.07-6.88-6.89h6.88z" fill="#263942" opacity=".02"/><path d="m13.8 9.85a1.21 1.21 0 0 1 -.38-.06v1.79h.75v-1.79a1.15 1.15 0 0 1 -.37.06z" fill="#455e77"/><circle cx="13.8" cy="8.59" fill="#7c8999" r="1.32"/><g fill="#455e77"><path d="m22.18 13.64h-.78v7.15h.78a.78.78 0 0 0 .82-.79v-5.59a.77.77 0 0 0 -.82-.77z"/><path d="m6.19 13.64h-.83a.77.77 0 0 0 -.77.77v5.59a.78.78 0 0 0 .77.77h.83z"/><path d="m21.45 22.07a.77.77 0 0 1 -.77.77h-13.77a.78.78 0 0 1 -.77-.77v-9.76a.78.78 0 0 1 .77-.78h13.77a.77.77 0 0 1 .77.78z"/></g><path d="m19.62 17.2a2.66 2.66 0 0 1 -2.62 2.67h-6.36a2.66 2.66 0 0 1 -2.64-2.67 2.67 2.67 0 0 1 2.67-2.67h6.33a2.67 2.67 0 0 1 2.67 2.67z" fill="#f4f4f4"/><path d="m19.62 17.2a2.66 2.66 0 0 1 -2.62 2.67h-6.36a2.66 2.66 0 0 1 -2.64-2.67 2.67 2.67 0 0 1 2.67-2.67h6.33a2.67 2.67 0 0 1 2.67 2.67z" fill="#263942" opacity=".05"/><ellipse cx="10.37" cy="17.2" fill="#7c8999" rx="1.04" ry="1.04"/><ellipse cx="17.24" cy="17.2" fill="#7c8999" rx="1.04" ry="1.04"/><g fill="#263942" opacity=".2"><path d="m22.18 13.64h-.78v7.15h.78a.78.78 0 0 0 .82-.79v-5.59a.77.77 0 0 0 -.82-.77z"/><path d="m6.19 13.64h-.83a.77.77 0 0 0 -.77.77v5.59a.78.78 0 0 0 .77.77h.83z"/></g><path d="m13.8 9.85a1.21 1.21 0 0 1 -.38-.06v1.79h.75v-1.79a1.15 1.15 0 0 1 -.37.06z" fill="#263942"/><g fill="#7c8999"><path d="m7.54 27.42h-1.54a.57.57 0 1 1 0-1.13h4.18a.57.57 0 1 1 0 1.13h-1.48v4.45a.58.58 0 1 1 -1.16 0z"/><path d="m13.86 28.43 1.54-1.92c.46-.6 1.35.16.84.74s-1.08 1.31-1.61 2l1.8 2.24a.58.58 0 1 1 -1 .65l-1.63-2.08-1.59 2.12c-.45.65-1.45-.08-.95-.68l1.77-2.25c-.55-.69-1.09-1.37-1.63-2a.57.57 0 1 1 .88-.72z"/><path d="m19 27.42h-1.59a.57.57 0 1 1 0-1.13h4.18a.57.57 0 1 1 0 1.13h-1.47v4.45a.58.58 0 1 1 -1.16 0z"/></g></svg>