<svg viewBox="0 0 73.2 58.56" xmlns="http://www.w3.org/2000/svg"><rect fill="#f4f4f4" height="58.56" rx="9.76" width="73.19"/><g fill="#263942"><rect height="9.76" opacity=".05" rx="4.88" width="63.43" x="4.88" y="4.88"/><path d="m70.76 9.76a2.44 2.44 0 0 0 -2.44 2.44v36.6a4.9 4.9 0 0 1 -4.88 4.88h-51.24a2.44 2.44 0 1 0 0 4.88h51.24a9.76 9.76 0 0 0 9.76-9.76v-36.6a2.44 2.44 0 0 0 -2.44-2.44z" opacity=".05"/><circle cx="12.2" cy="9.76" opacity=".05" r="2.44"/><circle cx="19.03" cy="9.76" opacity=".05" r="2.44"/><circle cx="25.86" cy="9.76" opacity=".05" r="2.44"/></g><g fill="#7c8999"><path d="m36.77 38v-5.59a1.75 1.75 0 0 0 -3.5 0v5.59a5.24 5.24 0 1 0 3.5 0zm-1.77 6.63a1.75 1.75 0 1 1 1.75-1.74 1.75 1.75 0 0 1 -1.75 1.74z"/><path d="m35 20.19a19.23 19.23 0 0 0 -19.19 19.21v3.49a1.75 1.75 0 0 0 1.75 1.74h3.49a1.75 1.75 0 1 0 0-3.49h-1.74v-1.74a15.69 15.69 0 0 1 2-7.73l2 2a1.75 1.75 0 1 0 2.47-2.47l-2.37-2.37a15.74 15.74 0 0 1 9.86-5v1.65a1.75 1.75 0 0 0 3.5 0v-1.7a15.71 15.71 0 0 1 9.86 5l-2.37 2.37a1.75 1.75 0 0 0 2.47 2.47l2-2a15.58 15.58 0 0 1 2 7.73v1.74h-1.73a1.75 1.75 0 1 0 0 3.49h3.49a1.74 1.74 0 0 0 1.75-1.74v-3.44a19.23 19.23 0 0 0 -19.24-19.21z"/></g></svg>