<svg viewBox="0 0 33.1 35.7" xmlns="http://www.w3.org/2000/svg"><path d="m17.8 8.7c6.3 0 11.3 5.1 11.3 11.3s-5.1 11.3-11.3 11.3-11.3-5-11.3-11.3c0-6.2 5-11.3 11.3-11.3z" fill="#263942" opacity=".05"/><path d="m30.6 7.8h-5.2c-.3 0-.5.1-.7.3l-5.4 6.1c-.4.5-1.2.4-1.4-.2l-2.8-5.7c-.1-.3-.4-.5-.7-.5h-4.8c-.6 0-1 .7-.8 1.3l4.9 9.7c.2.3.1.7-.1 1l-10 10.9c-.5.6-.1 1.5.6 1.5h5.1c.2 0 .5-.1.6-.3l6.1-6.7c.4-.5 1.2-.4 1.4.2l3.2 6.4c.1.3.5.5.8.5h4.7c.7 0 1.1-.7.8-1.3l-5.3-10.3c-.2-.3-.1-.7.1-1l9.4-10.3c.7-.6.3-1.6-.5-1.6z" fill="#455e77"/><path d="m30.6 7.8h-5.2c-.3 0-.5.1-.7.3l-5.4 6.1c-.4.5-1.2.4-1.4-.2l-2.8-5.7c-.1-.3-.4-.5-.7-.5h-4.8c-.6 0-1 .7-.8 1.3l4.9 9.7c.2.3.1.7-.1 1l-10 10.9c-.5.6-.1 1.5.6 1.5h5.1c.2 0 .5-.1.6-.3l6.1-6.7c.4-.5 1.2-.4 1.4.2l3.2 6.4c.1.3.5.5.8.5h4.7c.7 0 1.1-.7.8-1.3l-5.3-10.3c-.2-.3-.1-.7.1-1l9.4-10.3c.7-.6.3-1.6-.5-1.6z" opacity=".1"/><path d="m32.2 7.8h-5.2c-.3 0-.5.1-.7.3l-5.3 6.2c-.4.5-1.2.4-1.4-.2l-2.8-5.7c-.1-.3-.5-.5-.8-.5h-4.7c-.7 0-1.1.7-.8 1.3l4.9 9.7c.2.3.1.7-.1 1l-10 10.9c-.5.6-.1 1.5.6 1.5h5.1c.2 0 .5-.1.6-.3l6.1-6.7c.4-.5 1.2-.4 1.4.2l3.2 6.4c.1.3.5.5.8.5h4.7c.7 0 1.1-.7.8-1.3l-5.3-10.3c-.2-.3-.1-.7.1-1l9.4-10.3c.6-.7.2-1.7-.6-1.7z" fill="#455e77"/><path d="m3.6 24.5 4.9-5.3c-1.2-.7-2.3-1.7-3.1-2.8l-4.9 5.4c-.8.9-.7 2.2.1 3 .9.6 2.3.5 3-.3zm10.2-5.4c4.6-.2 8.2-4.1 8-8.7s-4.1-8.2-8.7-8-8.2 4.1-8 8.7c.1 4.6 4.1 8.2 8.7 8zm-6.7-8.1c-.2-3.5 2.5-6.4 6-6.6s6.4 2.5 6.6 6-2.5 6.4-6 6.6c-3.5.1-6.4-2.6-6.6-6z" fill="#7C8999"/><path d="m13.2 5.8.1 1.4c1.9-.1 3.6 1.4 3.6 3.3l1.4-.1c-.1-2.6-2.4-4.7-5.1-4.6z" fill="#7C8999"/><path d="m3.6 24.5 4.9-5.3c-1.2-.7-2.3-1.7-3.1-2.8l-4.9 5.4c-.8.9-.7 2.2.1 3 .9.6 2.3.5 3-.3z" opacity=".1"/></svg>